<?xml version="1.0" encoding="utf-8"?>
<!-- Generator: Adobe Illustrator 27.4.0, SVG Export Plug-In . SVG Version: 6.00 Build 0)  -->
<svg version="1.1" id="Layer_1" xmlns="http://www.w3.org/2000/svg" xmlns:xlink="http://www.w3.org/1999/xlink" x="0px" y="0px"
	 viewBox="0 0 162.58 110.55" style="enable-background:new 0 0 162.58 110.55;" xml:space="preserve">
<style type="text/css">
	.st0{fill:#9C9EA1;}
	.st1{fill:#FFFFFF;}
</style>
<path class="st0" d="M68.87,98.45c-1.53-0.76-10.26-5.82-10.98-6.25c-0.22-0.13-0.38-0.29-0.51-0.45c-0.05-0.07-0.07-0.14-0.06-0.22
	c-1.81-1.13-1.3-2.86-3.26-3.65c-1.26,0.57-4.73,1.96-4.94,2.09c-0.76,0.48-1.27,0.92-1.72,1.46c-0.32,0.38-0.2,0.83,0.07,1.2
	c1.07,1.46,12.63,7.88,13.2,8.08c0.06,0.02,0.07,0.06,0.11,0.1l-0.05,0.04c-0.15-0.02-0.3-0.03-0.46-0.05
	c-1.09-0.1-1.68-0.18-2.77-0.29c-2.08-0.2-44.67-4.56-47.58-4.64c-0.32-0.01-2.35,0.18-5.22,1.08c-3.39,1.06-4.8,2.12-4.59,2.5
	c0.17,0.31,0.32,1.78,4.41,2.27c0.21,0.02,50.77,3.38,51.77,3.44c1.64,0.1,3.3,0.1,4.97-0.04c0.38-0.03,0.78-0.07,1.12-0.15
	c3.8-0.91,7.22-4.27,7.54-4.83C69.94,100.06,70.49,99.26,68.87,98.45"/>
<path class="st0" d="M162.45,100.82c-4.41-7.17-20.3-6.05-40.76-5.11c-1.63,0.08-3.17,0.29-4.69,0.52c-0.64,0.1-1.29,0.19-1.92,0.3
	c-1.21,0.21-2.42,0.42-3.59,0.66c-1.63,0.34-3.35,0.51-5.14,0.58c-0.57,0.02-1.14,0.06-1.71,0.07c-1.27,0.02-2.53,0.03-3.74-0.14
	c-9.08-1.34-43.56-10.41-44.26-10.21c1.14,0.52,2.59,6.19,3.63,6.88c0.42,0.05,22.6,3.23,33.22,6.69c1.62,0.53,4.72,1.9,6.06,2.73
	c0.78,0.48,1.49,0.94,2.15,1.49c8.37,6.97,30.01,5.08,31.68,4.96C161.62,108.14,163.18,102,162.45,100.82"/>
<path d="M10.85,0h8.98c4.92,0,7.21,0.47,9.33,2.84c1.3,1.34,1.73,3.11,1.73,4.81c0,2.24-1.02,4.53-3.39,5.87
	c4.69,1.65,4.81,5.55,4.81,6.77c0,2.32-0.91,4.88-2.68,6.34c-2.68,2.25-4.61,2.52-9.53,2.52h-9.26V0z M17.98,11.07h2.64
	c1.02,0,3.15,0,3.15-2.32c0-2.21-2.01-2.21-3.15-2.21h-2.64V11.07z M17.98,22.61h3.51c0.94,0,3.7,0,3.7-2.8
	c0-2.52-2.52-2.52-3.7-2.52h-3.51V22.61z"/>
<polygon points="34.76,0 50.95,0 50.95,6.54 41.89,6.54 41.89,11.07 50.67,11.07 50.67,17.6 41.89,17.6 41.89,22.61 50.95,22.61 
	50.95,29.14 34.76,29.14 "/>
<polygon points="53.98,0 60.4,0 71.66,18.31 71.74,18.23 71.43,0 78.56,0 78.56,29.14 72.1,29.14 60.99,11.42 60.91,11.46 
	61.11,29.14 53.98,29.14 "/>
<path d="M82.69,0h9.65c3.27,0,9.1,0,12.88,5.44c2.01,2.76,2.68,5.87,2.68,9.06c0,7.95-3.94,14.65-15.01,14.65h-10.2V0z M90.13,22.61
	h3.19c5.55,0,7.13-3.86,7.13-7.99c0-1.65-0.35-3.74-1.42-5.4c-0.87-1.3-2.36-2.68-5.67-2.68h-3.23V22.61z"/>
<rect x="118.2" width="7.44" height="29.14"/>
<polygon points="129.34,0 135.76,0 147.03,18.31 147.11,18.23 146.79,0 153.92,0 153.92,29.14 147.46,29.14 136.35,11.42 
	136.27,11.46 136.47,29.14 129.34,29.14 "/>
<path d="M22.73,41.83c-0.16-1.03-0.41-2.96-2.79-2.96c-1.36,0-2.67,0.94-2.67,2.38c0,1.81,0.82,2.18,6.28,4.64
	c5.67,2.55,7.1,5.17,7.1,8.71c0,4.43-2.55,9.32-10.59,9.32c-8.79,0-10.96-5.75-10.96-9.65v-0.99h7.72c0,3.53,2.18,4.15,3.16,4.15
	c1.85,0,2.96-1.52,2.96-2.92c0-2.01-1.27-2.5-5.95-4.48c-2.14-0.86-7.43-3-7.43-8.71c0-5.71,5.54-8.95,10.64-8.95
	c3,0,6.24,1.11,8.21,3.45c1.81,2.22,1.93,4.27,2.01,6H22.73z"/>
<path class="st0" d="M24.46,57.41l-0.83,0c0.68-0.77,1.03-2.03,1.03-2.89c0-2.9-1.71-3.77-6.66-5.85l-0.29-0.12
	c-3.34-1.35-6.44-3.16-6.44-7.21c0-1,0.21-1.94,0.62-2.8l0.79-0.02c-0.48,0.84-0.72,1.79-0.72,2.81c0,3.64,2.89,5.31,6.01,6.57
	l0.3,0.12c4.91,2.07,7.08,3.12,7.08,6.49C25.35,55.51,25.04,56.54,24.46,57.41"/>
<path class="st0" d="M13.94,60.73c-1.65-1.06-2.67-2.61-3.06-4.63l-0.15-0.78l0.71,0l0.12,0.65c0.43,2.25,1.83,3.89,3.98,4.82
	L13.94,60.73z"/>
<path d="M33.65,32.96h9.94c5.63,0,7.72,0.86,9.36,2.22c2.38,1.97,3.57,4.97,3.57,8.05c0,3.08-1.27,6.32-3.2,7.97
	c-2.09,1.77-4.15,2.63-8.87,2.63h-3.37v9.53h-7.43V32.96z M41.09,47h3.16c1.48,0,4.85,0,4.85-3.66c0-3.57-3.45-3.57-5.13-3.57h-2.87
	V47z"/>
<path d="M108.74,32.38c9.36,0,16.06,7.31,16.06,15.77c0,8.46-6.65,15.77-16.1,15.77c-9.57,0-15.97-7.6-15.97-15.4
	c0-2.01,0.29-4.27,1.19-6.49C95.52,38.09,100.24,32.38,108.74,32.38 M108.87,57.1c5.5,0,8.17-5.01,8.17-8.91
	c0-3.94-2.67-8.99-8.25-8.99c-5.38,0-8.3,4.6-8.3,8.87C100.49,52.75,103.65,57.1,108.87,57.1"/>
<path d="M74.93,32.38c9.36,0,16.06,7.31,16.06,15.77c0,8.46-6.65,15.77-16.1,15.77c-9.57,0-15.98-7.6-15.98-15.4
	c0-2.01,0.29-4.27,1.19-6.49C61.71,38.09,66.43,32.38,74.93,32.38 M75.06,57.1c5.5,0,8.17-5.01,8.17-8.91
	c0-3.94-2.67-8.99-8.25-8.99c-5.38,0-8.3,4.6-8.3,8.87C66.68,52.75,69.84,57.1,75.06,57.1"/>
<polygon points="128.29,32.96 134.99,32.96 146.73,52.05 146.81,51.97 146.49,32.96 153.92,32.96 153.92,63.35 147.18,63.35 
	135.6,44.87 135.52,44.91 135.73,63.35 128.29,63.35 "/>
<path d="M142.93,104.39c1.7-0.27,3.35-0.67,4.94-1.28c0.95-0.37,1.88-0.81,2.81-1.24c0.52-0.24,0.91-0.66,1.3-1.06
	c0.27-0.28,0.52-0.57,0.75-0.87c0.18-0.23,0.12-0.39-0.13-0.53c-0.3-0.17-0.62-0.12-0.94-0.04c-0.83,0.22-1.65,0.47-2.48,0.67
	c-0.71,0.18-1.42,0.31-2.13,0.47c-0.35,0.08-0.7,0.16-1.04,0.23c-0.15,0.03-0.29,0.06-0.43,0.15c0.17-0.02,0.34-0.02,0.5-0.05
	c1.09-0.15,2.18-0.3,3.27-0.45c0.19-0.03,0.36-0.02,0.47,0.17c0.09,0.16,0.11,0.35-0.01,0.47c-0.29,0.29-0.48,0.67-0.86,0.91
	c-0.97,0.61-1.99,1.1-3.06,1.49c-0.6,0.22-1.21,0.43-1.82,0.62c-0.32,0.1-0.64,0.17-0.96,0.26
	C143.05,104.34,142.99,104.37,142.93,104.39"/>
<path d="M144.62,101.06c-0.07,0.01-0.14,0.01-0.2,0.02c0,0.02,0,0.04,0.01,0.07c0.07-0.01,0.13-0.02,0.2-0.03
	C144.62,101.09,144.62,101.07,144.62,101.06"/>
<path d="M160.03,88.4c-2.74-7.45-19.89-14.62-39.18-12.99c-1.54,0.13-2.99,0.59-4.42,1.1c-0.6,0.22-1.22,0.4-1.81,0.65
	c-1.14,0.47-2.28,0.93-3.38,1.47c-1.53,0.77-3.15,1.11-4.84,1.22c-0.54,0.04-1.07,0.11-1.61,0.12c-1.2,0.02-2.38-0.09-3.53-0.46
	c-1.06-0.34-2.12-0.68-3.17-1.06c-0.85-0.31-15.98-6.39-16.82-6.75c-0.28-0.12,13.74,5.45,13.45,5.34c-2.73-1.03-19.72-7.89-22.42-9
	c-1.78-0.73-3.57-1.41-5.37-2.09c-1.62-0.61-3.25-1.17-4.88-1.76c-1.58-0.57-3.14-1.18-4.73-1.73c-1-0.35-2.02-0.65-3.04-0.96
	c-0.45-0.14-0.91-0.27-1.36-0.42c-0.81-0.26-1.65-0.32-2.5-0.39c-2.02-0.15-5.9,4.72-6.32,5.32c-0.76,1.09-1.27,2.1-1.73,3.34
	c-0.32,0.88-0.21,1.96,0.06,2.87c1.05,3.6,12.54,19.92,13.1,20.47c0.06,0.06,0.07,0.16,0.11,0.24c-0.02,0.03-0.03,0.05-0.05,0.08
	c-0.15-0.05-0.3-0.1-0.46-0.15c-1.09-0.33-1.68-0.58-2.76-0.93c-2.07-0.66-39.64-13.28-42.55-13.74c-0.32-0.05-2.34,0.22-5.22,2.12
	c-3.39,2.24-4.81,4.65-4.6,5.59c0.17,0.76-0.01,1.45,4.07,2.96c0.2,0.08,47.31,13.6,48.31,13.84c1.63,0.39,3.29,0.52,4.96,0.33
	c0.38-0.04,0.77-0.1,1.12-0.26c3.8-1.85,5.98-9.38,6.3-10.68c0.04-0.17,0.59-2.05-1.02-4.12c-1.52-1.95-10.19-14.81-10.9-15.89
	c-0.22-0.34-0.38-0.73-0.51-1.11c-0.08-0.23-0.07-0.51-0.05-0.76c0.02-0.27,0.11-0.44,0.49-0.31c1.06,0.36,2.12,0.68,3.18,1.04
	c2.91,0.98,20.17,7.54,23.04,8.65c7.37,2.83,14.59,6.87,15.66,7.82c1.53,1.36,4.13,4.59,5.4,6.62c0.74,1.18,1.38,2.42,2.05,3.64
	c2.1,3.79,5.16,5.62,5.81,6c9.66,5.74,27.41,3.64,28.98,3.4C163.52,102.93,160.79,90.48,160.03,88.4 M94.14,84.71
	C74.32,76.09,54.49,69.14,52.9,68.59c-1.09-0.38-2.19-0.67-3.31-0.96c-1.18-0.31-0.98-0.89,0.33-0.59c0.98,0.23,1.85,0.4,2.84,0.63
	c1.41,0.33,19.4,6.37,40.13,15.71c0.78,0.35,2.22,0.93,2.76,1.5C95.86,85.1,95.38,85.25,94.14,84.71"/>
<path class="st1" d="M158.93,90.57c-0.19-0.54-0.64-0.82-1.09-0.45c-12.39,10.33-36.69,9.62-38.87,9.37
	c-1.45-0.16-8.77-0.66-15.19-6.16c-0.15-0.13-0.61-0.47-0.57,0.14c0.04,0.54,0.2,1.05,0.34,1.57c1.1,4.26,3.45,5.98,3.53,6.08
	c0,0,0.51,0.47,0.76,0.68c0.8,0.67,2.05,1.37,3,1.81c0.12,0.05,3.82,2.68,17.76,2.5c0.56-0.01,1.14-0.02,1.73-0.04
	c10.31-0.29,19.11-3.2,23.25-5.91c0.84-0.46,2.8-2.27,3.46-3.07C157.74,96.28,159.66,92.6,158.93,90.57 M154.38,98.33
	c-0.03,0.33-0.25,0.54-0.49,0.78c-2.79,1.99-11.29,5.84-23.56,6.18c-11.7,0.33-19.14-1.54-22.07-4.36c-0.52-0.5-0.9-1.12-1.34-1.68
	c-0.16-0.2-0.21-0.44-0.23-0.71c0.07,0.02,0.11,0.02,0.14,0.04c0.95,0.63,2.01,1.03,3.11,1.3c1.69,0.42,3.35,0.98,5.08,1.22
	c0.19,0.03,0.37,0.09,0.56,0.14c1.88,0.49,3.79,0.78,5.73,0.78c0.54,0,1.05-0.1,1.51-0.36c0.38-0.21,0.74-0.46,1.12-0.67
	c0.2-0.11,0.42-0.22,0.64-0.23c1.34-0.06,2.69-0.1,4.03-0.14c1.14-0.03,2.28-0.04,3.42-0.09c1.98-0.09,3.96-0.21,5.94-0.3
	c2.38-0.11,4.75-0.34,7.1-0.8c2.67-0.52,5.32-1.09,7.98-1.64c0.36-0.07,0.7-0.1,1.04,0.07C154.32,97.98,154.4,98.06,154.38,98.33"/>
<path class="st1" d="M137.65,80.46c0.01,0,0.03-0.01,0.04-0.01c0.2-0.06,0.37-0.16,0.37-0.4c0.01-0.22-0.15-0.33-0.33-0.38
	c-0.33-0.11-0.66-0.23-1-0.28c-1.44-0.22-2.82-0.64-4.22-1.02c-1.27-0.35-2.57-0.55-3.88-0.67c-2.46-0.21-4.92-0.11-7.36,0.26
	c-1.89,0.29-3.72,0.79-5.46,1.58c-0.82,0.37-1.6,0.84-2.39,1.29c-0.52,0.29-0.94,0.7-1.23,1.23c-0.19,0.35-0.16,0.48,0.21,0.6
	c0.65,0.22,1.31,0.38,2,0.32c1.11-0.09,2.22-0.17,3.33-0.31c3.23-0.39,6.47-0.81,9.7-1.22c1.33-0.17,2.66-0.36,3.99-0.52
	c0.55-0.07,1.11-0.11,1.67-0.14c1.2-0.07,2.41-0.13,3.61-0.2c0.32-0.02,0.63-0.07,0.94-0.11C137.65,80.47,137.65,80.46,137.65,80.46
	"/>
<rect x="131.1" y="1.76" class="st0" width="0.74" height="25.25"/>
<polygon class="st0" points="149.44,22.18 148.7,20.51 148.7,1.76 149.44,1.76 "/>
<polygon class="st0" points="74.12,22.26 73.38,20.6 73.38,1.76 74.12,1.76 "/>
<rect x="119.95" y="1.76" class="st0" width="0.73" height="25.25"/>
<rect x="84.5" y="1.76" class="st0" width="0.74" height="25.25"/>
<rect x="55.73" y="1.76" class="st0" width="0.74" height="25.25"/>
<rect x="36.49" y="1.76" class="st0" width="0.74" height="25.25"/>
<rect x="35.43" y="35.15" class="st0" width="0.73" height="25.95"/>
<rect x="12.61" y="1.76" class="st0" width="0.74" height="25.25"/>
<polygon class="st0" points="72.39,25.56 72.38,27.01 62.77,11.38 63.65,11.37 "/>
<polygon class="st0" points="148.3,26.41 148.28,27.86 138.45,11.98 139.32,11.97 "/>
<rect x="130.11" y="35.2" class="st0" width="0.73" height="25.9"/>
<polygon class="st0" points="148.95,56.76 148.22,55.12 148.22,35.15 148.95,35.15 "/>
<polygon class="st0" points="147.01,59.02 147,60.45 137.26,44.72 138.12,44.72 "/>
<path class="st0" d="M25.52,22.81c0.01,0,1.27-1.29,1.27-2.75c0-1.56-1.09-2.51-1.1-2.52l0.82,0.03c0.45,0.45,1.02,1.38,1.02,2.49
	c0,1.18-0.73,2.36-1.18,2.73L25.52,22.81z"/>
<path class="st0" d="M49.41,46.93c0.01-0.01,1.4-1.56,1.4-3.58c0-2.16-1.6-3.59-1.62-3.6h0.99c0.64,0.62,1.39,2.06,1.39,3.6
	c0,1.63-0.57,3.05-1.21,3.56L49.41,46.93z"/>
<path class="st0" d="M24.26,11.11c0,0,1.11-0.98,1.11-2.23c0-1.34-0.94-2.16-0.95-2.17l0.95,0.02c0.36,0.45,0.82,1.19,0.82,2.14
	c0,1.01-0.51,1.72-0.92,2.22L24.26,11.11z"/>
<path class="st0" d="M67.15,59.93c-4.02-2.58-6.46-6.98-6.46-11.75c0-4.64,2.32-8.94,6.16-11.55c0,0,1.54-0.13,1.48-0.1
	c-4.29,2.36-6.95,6.81-6.95,11.64c0,4.91,2.74,9.41,7.14,11.75L67.15,59.93z"/>
<path class="st0" d="M100.87,59.93c-4.02-2.58-6.47-6.98-6.47-11.75c0-4.64,2.33-8.94,6.16-11.55c0,0,1.54-0.13,1.49-0.1
	c-4.29,2.36-6.95,6.81-6.95,11.64c0,4.91,2.74,9.41,7.14,11.75L100.87,59.93z"/>
<path class="st0" d="M98.7,22.22c2.1-1.47,3.21-4.1,3.21-7.61c0-1.3-0.21-3.8-1.58-5.94c-0.48-0.72-1.06-1.33-1.72-1.8l1.12,0.01
	c0.44,0.41,0.84,0.88,1.19,1.4c1.48,2.3,1.7,4.95,1.7,6.33c0,3.32-0.95,5.92-2.77,7.59L98.7,22.22z"/>
<path class="st0" d="M82.35,39.77c2.14,2.18,3.37,5.39,3.37,8.42c0,3.37-1.45,6.8-4.07,8.97l-1.22,0.04
	c2.94-1.96,4.59-5.52,4.59-9.01c0-3.15-1.34-6.36-3.75-8.42L82.35,39.77z"/>
<path class="st0" d="M116.25,39.77c2.14,2.18,3.38,5.39,3.38,8.42c0,3.37-1.45,6.8-4.07,8.97l-1.22,0.04
	c2.94-1.96,4.59-5.52,4.59-9.01c0-3.15-1.34-6.36-3.75-8.42L116.25,39.77z"/>
<path class="st1" d="M55.05,101.32c-0.12-0.02-0.32-0.02-0.5-0.08c-0.89-0.27-1.78-0.55-2.67-0.84c-0.37-0.12-2.65-0.72-3.33-0.94
	c-0.5-0.11-1.01-0.2-1.5-0.32c-1.23-0.31-2.46-0.61-3.68-0.94c-3.09-0.85-6.2-1.59-9.25-2.57c-0.66-0.21-3.26-0.96-4.8-1.41
	c-2.27-0.66-4.56-1.31-6.83-1.97c-1.87-0.55-1.54-0.42-3.44-0.88c-1.22-0.29-2.43-0.63-3.64-0.97c-0.63-0.17-1.24-0.4-1.87-0.58
	c-1.19-0.34-2.41-0.61-3.59-1c-1.18-0.4-2.41-0.58-3.57-1.04c-0.85-0.34-1.77-0.52-2.66-0.74c-0.56-0.14-1.11-0.3-1.64-0.52
	c-0.21-0.09-0.33-0.23-0.38-0.44c0,0,0.31-1.06,2.26-0.56c0.34,0.09,0.7,0.15,1.05,0.23c0.35,0.08,0.7,0.15,1.05,0.24
	c0.84,0.23,1.67,0.47,2.51,0.7l9.46,2.82c0.45,0.16,0.9,0.31,1.35,0.45c1.79,0.58,1.42,0.39,3.22,0.95c1.76,0.54,3.53,1.08,5.3,1.59
	c1.49,0.43,0.29,0.14,1.78,0.57c3.11,0.91,6.21,1.85,9.32,2.77c0.11,0.03,0.21,0.06,0.32,0.09l9.56,2.86c0.35,0.09,2.66,0.87,3,0.97
	c0.22,0.07,0.43,0.17,0.65,0.2c0.31,0.05,0.61,0.12,0.92,0.18l1.49,0.44c0.11,0.04,0.21,0.09,0.3,0.16
	C55.41,100.91,55.36,101.2,55.05,101.32"/>
<path class="st1" d="M54.54,87.23c0.91,1.29,1.78,2.59,2.67,3.9c0.85,1.25,1.64,2.53,2.28,3.91c0.51,1.09,0.69,2.21,0.73,3.42
	c0.02,0.66-0.27,1.29-0.71,1.79c-1.16,1.31-2.42,1.4-2.68,1.37c-0.14-0.02-0.28-0.08-0.31-0.24c-0.03-0.18,0.08-0.28,0.23-0.36
	c0.04-0.03,0.09-0.04,0.14-0.06c0.26-0.11,0.52-0.22,0.77-0.35c0.57-0.29,1.07-0.68,1.35-1.26c0.31-0.66,0.37-0.83,0.26-1.56
	c-0.04-0.29-0.07-0.59-0.12-0.88c-0.11-0.7-0.29-1.38-0.64-2c-0.45-0.79-0.85-1.61-1.35-2.37c-1.13-1.68-2.28-3.34-3.48-4.97
	c-1.4-1.9-2.76-3.81-4.08-5.77c-0.82-1.22-1.64-2.44-2.45-3.67c-0.64-0.97-1.24-1.98-1.91-2.92c-0.76-1.06-1.19-2.26-1.61-3.46
	c-0.13-0.37-0.25-0.85-0.27-1.26c-0.02-0.63,0.06-1.64,1.08-1.67c-0.06,0.31-0.14,0.57-0.15,0.83c-0.05,0.73-0.01,1.46,0.3,2.15
	c0.25,0.55,0.47,1.11,0.75,1.64c0.66,1.27,1.42,2.49,2.25,3.66c0.59,0.84,1.16,1.69,1.73,2.54c0.44,0.67,0.84,1.38,1.3,2.04
	C51.89,83.53,53.23,85.37,54.54,87.23"/>
<path class="st1" d="M94.14,84.85C74.32,76.23,54.49,69.27,52.9,68.73c-1.09-0.38-2.19-0.67-3.31-0.96
	c-1.18-0.31-0.98-0.89,0.33-0.59c0.98,0.23,1.85,0.4,2.84,0.63c1.41,0.33,19.4,6.37,40.13,15.71c0.78,0.35,2.22,0.93,2.76,1.5
	C95.86,85.23,95.38,85.39,94.14,84.85"/>
</svg>
